<!-- Generated by IcoMoon.io -->
<svg version="1.1" xmlns="http://www.w3.org/2000/svg" width="63" height="32" viewBox="0 0 63 32">
<title>logo-1</title>
<path d="M1.332 0.624h5.004c1.18 0 2.087 0.089 2.721 0.266 0.647 0.164 1.104 0.438 1.37 0.818 0.266 0.368 0.4 0.888 0.4 1.56v1.522c0 0.343-0.139 0.666-0.419 0.97-0.247 0.289-0.57 0.506-0.937 0.624l-0.015 0.004v0.095c0.482 0.051 0.919 0.259 1.313 0.628 0.406 0.355 0.609 0.755 0.609 1.199v1.903c0 1.002-0.4 1.712-1.199 2.131s-2.036 0.628-3.71 0.628h-5.137v-12.349zM6.336 5.648c0.47 0 0.818-0.038 1.046-0.114s0.381-0.196 0.457-0.362c0.089-0.177 0.133-0.432 0.133-0.761v-0.609c0-0.291-0.038-0.508-0.114-0.647-0.076-0.152-0.234-0.259-0.476-0.323-0.228-0.063-0.597-0.095-1.104-0.095h-1.979v2.911h2.036zM6.412 10.861c0.723 0 1.237-0.082 1.541-0.247s0.457-0.432 0.457-0.799v-0.989c0-0.457-0.121-0.78-0.361-0.97-0.228-0.19-0.64-0.285-1.237-0.285h-2.512v3.292h2.112zM17.919 13.163c-3.261 0-4.89-0.995-4.89-2.987v-3.311c0-1.155 0.368-1.992 1.104-2.512 0.748-0.52 1.896-0.78 3.444-0.78 1.458 0 2.524 0.253 3.197 0.761 0.685 0.495 1.027 1.338 1.027 2.531v2.245h-5.974v0.837c0 0.533 0.19 0.913 0.571 1.142s1.066 0.342 2.055 0.342c0.913 0 1.941-0.133 3.082-0.4v1.77c-1.058 0.23-2.273 0.362-3.519 0.362-0.034 0-0.068-0-0.102-0l0.005 0zM19.156 7.531v-1.332c0-0.304-0.127-0.533-0.381-0.685-0.241-0.152-0.654-0.228-1.237-0.228-0.672 0-1.123 0.076-1.351 0.228-0.219 0.142-0.362 0.385-0.362 0.661 0 0.008 0 0.017 0 0.025l-0-0.001v1.332h3.33zM26.531 13.163c-0.862 0-1.509-0.076-1.941-0.228-0.405-0.154-0.724-0.46-0.89-0.846l-0.004-0.010c-0.164-0.419-0.247-1.040-0.247-1.865 0-0.735 0.089-1.313 0.266-1.731 0.19-0.419 0.489-0.717 0.894-0.894 0.419-0.19 0.989-0.285 1.712-0.285h3.12v-0.628c0-0.394-0.057-0.685-0.171-0.875-0.101-0.19-0.298-0.323-0.59-0.4-0.279-0.076-0.704-0.114-1.275-0.114-0.787 0-1.865 0.076-3.235 0.228v-1.75c1.002-0.127 2.175-0.19 3.52-0.19 1.18 0 2.087 0.089 2.721 0.266 0.647 0.177 1.11 0.482 1.389 0.913s0.419 1.059 0.419 1.884v6.336h-2.721v-0.837c-0.216 0.368-0.508 0.628-0.875 0.78-0.368 0.164-1.066 0.247-2.093 0.247zM27.615 11.432c0.558 0 0.957-0.019 1.199-0.057 0.177-0.026 0.298-0.063 0.361-0.114 0.085-0.062 0.15-0.146 0.189-0.244l0.001-0.004c0.051-0.089 0.076-0.222 0.076-0.4v-1.789h-1.903c-0.432 0-0.735 0.032-0.913 0.095-0.172 0.046-0.307 0.174-0.36 0.339l-0.001 0.004c-0.063 0.164-0.095 0.463-0.095 0.894 0 0.419 0.032 0.71 0.095 0.875 0.061 0.16 0.194 0.281 0.358 0.323l0.004 0.001c0.19 0.051 0.52 0.076 0.989 0.076zM37.86 13.163c-1.18 0-2.011-0.209-2.493-0.628-0.47-0.432-0.704-1.104-0.704-2.017v-6.755h2.778v6.374c0 0.355 0.031 0.622 0.095 0.799 0.076 0.177 0.216 0.304 0.419 0.381 0.216 0.076 0.539 0.114 0.97 0.114 0.545 0 0.944-0.032 1.199-0.095 0.253-0.076 0.425-0.203 0.514-0.381s0.133-0.45 0.133-0.818v-6.374h2.778v9.209h-2.74v-1.123c-0.203 0.875-1.186 1.313-2.949 1.313zM50.584 13.163c-0.47 0-0.863-0.019-1.18-0.057-0.355-0.044-0.676-0.124-0.981-0.238l0.030 0.010c-0.338-0.102-0.63-0.265-0.879-0.478l0.003 0.003c-0.216-0.203-0.394-0.482-0.533-0.837-0.152-0.368-0.228-0.793-0.228-1.275v-4.814h-1.865v-1.712h1.865v-2.664h2.778v2.664h2.531v1.712h-2.531v4.338c0 0.444 0.038 0.78 0.114 1.008 0.076 0.216 0.222 0.374 0.438 0.476 0.216 0.089 0.545 0.133 0.989 0.133 0.177 0 0.508-0.032 0.989-0.095v1.731c-0.457 0.055-0.992 0.090-1.533 0.095l-0.008 0zM56.335 12.897l-3.673-9.133h3.025l2.074 6.507 1.884-6.507h2.873l-5.042 13.167h-2.816l1.674-4.034zM0.761 29.328l6.431-8.429h-6.241v-2.112h9.894v1.789l-6.431 8.429h6.545v2.131h-10.198v-1.808zM17.283 31.325c-0.571 0-1.040-0.019-1.408-0.057-0.444-0.050-0.845-0.13-1.232-0.241l0.052 0.013c-0.457-0.127-0.825-0.304-1.104-0.533-0.279-0.241-0.514-0.577-0.704-1.008-0.19-0.419-0.285-0.925-0.285-1.522v-2.721c0-0.609 0.095-1.142 0.285-1.598s0.438-0.812 0.742-1.066c0.266-0.216 0.615-0.393 1.046-0.533 0.377-0.137 0.816-0.238 1.271-0.284l0.023-0.002c0.39-0.023 0.848-0.037 1.31-0.038h0.003c0.583 0 1.046 0.019 1.389 0.057 0.355 0.026 0.742 0.101 1.161 0.228 0.457 0.139 0.824 0.329 1.104 0.571 0.291 0.241 0.539 0.584 0.742 1.027 0.19 0.457 0.285 1.002 0.285 1.636v2.721c0 0.571-0.095 1.072-0.285 1.503-0.178 0.432-0.413 0.767-0.704 1.008-0.254 0.216-0.603 0.393-1.046 0.533-0.432 0.127-0.856 0.209-1.275 0.247-0.381 0.038-0.837 0.057-1.37 0.057zM17.283 29.594c0.52 0 0.913-0.038 1.18-0.114 0.266-0.089 0.45-0.222 0.552-0.4 0.114-0.177 0.171-0.438 0.171-0.78v-3.482c0-0.508-0.133-0.862-0.4-1.066s-0.768-0.304-1.503-0.304c-0.736 0-1.237 0.101-1.503 0.304s-0.4 0.558-0.4 1.066v3.482c0 0.343 0.050 0.603 0.152 0.78 0.114 0.177 0.304 0.311 0.571 0.4 0.266 0.076 0.659 0.114 1.18 0.114zM24.128 21.926h2.74v1.123c0.216-0.875 1.199-1.313 2.949-1.313 1.18 0 2.005 0.216 2.473 0.647 0.483 0.419 0.723 1.085 0.723 1.998v6.755h-2.778v-6.393c0-0.355-0.038-0.622-0.114-0.799-0.063-0.177-0.202-0.304-0.419-0.381-0.202-0.076-0.52-0.114-0.951-0.114-0.545 0-0.944 0.038-1.199 0.114-0.253 0.063-0.425 0.184-0.514 0.361s-0.133 0.45-0.133 0.818v6.393h-2.778v-9.209zM40.067 31.325c-3.261 0-4.89-0.995-4.89-2.987v-3.311c0-1.155 0.368-1.992 1.104-2.512 0.749-0.52 1.897-0.78 3.444-0.78 1.459 0 2.525 0.253 3.197 0.761 0.685 0.495 1.027 1.338 1.027 2.531v2.245h-5.974v0.837c0 0.533 0.19 0.913 0.571 1.142s1.066 0.343 2.055 0.343c0.913 0 1.941-0.133 3.082-0.4v1.77c-1.058 0.23-2.273 0.362-3.519 0.362-0.034 0-0.068-0-0.102-0l0.005 0zM41.304 25.693v-1.332c0-0.304-0.126-0.533-0.381-0.685-0.24-0.152-0.653-0.228-1.237-0.228-0.672 0-1.123 0.076-1.351 0.228-0.219 0.142-0.362 0.385-0.362 0.661 0 0.008 0 0.017 0 0.025l-0-0.001v1.332h3.33z"></path>
</svg>
